<?xml version="1.0" encoding="UTF-8" standalone="no"?>
<svg xmlns:dc="http://purl.org/dc/elements/1.1/" xmlns:cc="http://creativecommons.org/ns#" xmlns:rdf="http://www.w3.org/1999/02/22-rdf-syntax-ns#" xmlns:svg="http://www.w3.org/2000/svg" xmlns="http://www.w3.org/2000/svg" viewBox="0 0 600 330" height="330" width="600" xml:space="preserve" id="svg4858" version="1.1"><metadata id="metadata4864"><rdf:RDF><cc:Work rdf:about=""><dc:format>image/svg+xml</dc:format><dc:type rdf:resource="http://purl.org/dc/dcmitype/StillImage"/><dc:title/></cc:Work></rdf:RDF></metadata><defs id="defs4862"><clipPath id="clipPath4878" clipPathUnits="userSpaceOnUse"><path id="path4876" d="M 0,0 H 450 V 248 H 0 Z"/></clipPath></defs><g transform="matrix(1.3333333,0,0,-1.3333333,0,330)" id="g4866"><g id="g4868"><g transform="translate(0,-0.5)" id="g4870"><g id="g4872"><g clip-path="url(#clipPath4878)" id="g4874"><g id="g4880"><path id="path4882" style="fill:#ffffff;fill-opacity:1;fill-rule:nonzero;stroke:none" d="M 29.996,247.773 C 13.578,247.773 0.227,234.41 0.227,217.992 V 30.496 C 0.227,14.078 13.578,0.727 29.996,0.727 h 390.008 c 16.418,0 29.769,13.351 29.769,29.769 v 187.496 c 0,16.418 -13.351,29.781 -29.769,29.781"/><path id="path4884" style="fill:#000000;fill-opacity:1;fill-rule:nonzero;stroke:none" d="M 29.996,0.953 C 13.699,0.953 0.453,14.199 0.453,30.496 v 187.496 c 0,16.297 13.246,29.555 29.543,29.555 h 390.008 c 16.297,0 29.543,-13.258 29.543,-29.555 V 30.496 c 0,-16.297 -13.246,-29.543 -29.543,-29.543 z M 420.004,248 H 29.996 C 13.426,248 0,234.566 0,217.992 V 30.496 C 0,13.934 13.426,0.5 29.996,0.5 H 420.004 C 436.566,0.5 450,13.934 450,30.496 V 217.992 C 450,234.566 436.566,248 420.004,248"/></g></g></g></g><path id="path4886" style="fill:#000000;fill-opacity:1;fill-rule:nonzero;stroke:none" d="m 29.996,18.746 h 390.008 c 6.215,0 11.25,5.035 11.25,11.25 v 187.496 c 0,6.215 -5.035,11.25 -11.25,11.25 H 29.996 c -6.215,0 -11.25,-5.035 -11.25,-11.25 V 29.996 c 0,-6.215 5.035,-11.25 11.25,-11.25 z m 0,-11.25 c -12.43,0 -22.5,10.07 -22.5,22.5 v 187.496 c 0,12.43 10.07,22.5 22.5,22.5 h 390.008 c 12.43,0 22.5,-10.07 22.5,-22.5 V 29.996 c 0,-12.43 -10.07,-22.5 -22.5,-22.5"/><path id="path4888" style="fill:#000000;fill-opacity:1;fill-rule:evenodd;stroke:none" d="m 127.293,86.355 -28.316,30.981 -2.446,-7.941 1.012,-0.532 1.012,-0.535 0.957,-0.59 0.953,-0.617 0.93,-0.617 0.898,-0.672 0.871,-0.703 0.813,-0.731 0.816,-0.757 0.785,-0.786 0.758,-0.812 0.73,-0.816 0.704,-0.868 0.675,-0.871 0.617,-0.898 0.618,-0.926 0.562,-0.953 0.535,-0.957 0.504,-0.981 0.477,-1.011 0.422,-1.008 0.422,-1.039 0.367,-1.039 0.617,-2.133 0.25,-1.066 0.226,-1.122 0.168,-1.097 0.141,-1.121 0.113,-1.121 0.055,-1.125 v -1.149 l -0.027,-1.629 -0.114,-1.629 -0.222,-1.597 -0.281,-1.543 -0.336,-1.543 -0.454,-1.516 -0.476,-1.488 -0.59,-1.434 -0.617,-1.402 -0.703,-1.375 -0.785,-1.348 -0.817,-1.261 -0.898,-1.262 -0.926,-1.207 -1.012,-1.153 -1.039,-1.093 -1.125,-1.067 -1.152,-0.98 -1.207,-0.957 -1.235,-0.867 L 99.23,53.547 97.91,52.789 96.531,52.086 95.129,51.441 93.668,50.879 92.18,50.375 90.691,49.953 89.145,49.59 87.57,49.309 85.969,49.113 84.367,49 82.738,48.945 81.082,49 l -1.602,0.113 -1.601,0.196 -1.574,0.281 -1.543,0.363 -1.489,0.422 -1.492,0.504 -1.429,0.562 -1.434,0.645 -1.348,0.703 -1.347,0.758 -1.293,0.844 -1.239,0.867 -1.207,0.957 -1.152,0.98 -1.094,1.067 -1.07,1.093 -1.008,1.153 -0.93,1.207 -0.898,1.262 -0.812,1.261 -0.79,1.348 -0.703,1.375 -0.617,1.402 -0.59,1.434 -0.476,1.488 -0.449,1.516 -0.34,1.543 -0.278,1.543 -0.199,1.597 -0.14,1.629 -0.028,1.629 0.028,1.625 0.14,1.629 0.199,1.57 0.278,1.575 0.34,1.543 0.449,1.515 0.476,1.461 0.59,1.457 0.617,1.403 0.703,1.375 0.79,1.32 0.812,1.293 0.898,1.262 0.93,1.179 1.008,1.176 1.07,1.098 1.094,1.035 1.152,1.012 1.207,0.953 1.239,0.871 1.293,0.844 1.347,0.757 1.348,0.7 1.434,0.644 1.429,0.563 1.492,0.503 1.489,0.422 1.543,0.368 1.574,0.277 1.601,0.199 1.602,0.109 1.656,0.059 0.59,-0.027 h 0.59 l 0.621,-0.032 0.59,-0.054 0.617,-0.028 0.59,-0.086 0.59,-0.054 0.59,-0.086 4.746,15.129 0.027,0.113 0.676,2.188 1.883,6.062 36.547,-39.965 h 66.242 l 1.687,5.473 1.711,5.558 1.742,5.555 1.743,5.613 1.742,5.641 1.742,5.668 1.769,5.672 1.77,5.695 1.742,5.668 1.77,5.672 1.742,5.668 1.769,5.613 1.715,5.614 1.742,5.582 1.711,5.531 1.688,5.473 0.254,0.73 0.25,0.699 0.308,0.703 0.309,0.672 0.367,0.676 0.363,0.645 0.395,0.617 0.422,0.617 0.449,0.59 0.449,0.562 0.477,0.559 0.508,0.535 0.535,0.504 0.558,0.476 0.563,0.477 0.562,0.449 0.618,0.422 0.589,0.395 0.649,0.39 0.644,0.336 0.645,0.34 0.676,0.281 0.676,0.278 0.699,0.254 0.703,0.222 0.73,0.199 1.461,0.282 0.758,0.109 0.731,0.086 0.761,0.027 0.785,0.028 h 15.368 v -9.344 h -15.368 l -0.394,-0.027 h -0.363 l -0.395,-0.059 -0.363,-0.055 -0.367,-0.054 -0.364,-0.086 -0.367,-0.086 -0.363,-0.11 -0.34,-0.14 -0.672,-0.282 -0.34,-0.167 -0.308,-0.168 -0.309,-0.2 -0.617,-0.39 -0.281,-0.227 -0.282,-0.222 -0.281,-0.254 -0.254,-0.25 -0.25,-0.282 -0.254,-0.281 -0.222,-0.281 -0.227,-0.281 -0.226,-0.309 -0.196,-0.309 -0.504,-1.007 -0.14,-0.34 -0.282,-0.727 -3.738,-12.125 -2.949,-9.488 0.059,0.141 31.968,-35.446 h 37.559 l 1.266,3.399 1.261,3.394 1.266,3.395 1.293,3.398 1.262,3.367 1.293,3.395 1.293,3.367 1.292,3.398 1.262,3.368 1.293,3.367 1.293,3.394 1.293,3.368 1.262,3.398 1.293,3.367 1.293,3.395 1.265,3.394 -19.777,4.715 -0.199,0.059 -0.168,0.082 -0.195,0.086 -0.168,0.082 -0.141,0.113 -0.141,0.141 -0.14,0.113 -0.141,0.168 -0.113,0.14 -0.082,0.168 -0.172,0.336 -0.055,0.196 -0.027,0.199 -0.027,0.195 v 0.422 l 0.027,0.223 0.055,0.226 0.085,0.223 0.114,0.199 0.109,0.196 0.113,0.167 0.168,0.168 0.172,0.168 0.168,0.114 0.196,0.113 0.195,0.109 0.226,0.086 0.223,0.055 0.227,0.027 h 0.222 l 39.782,0.059 v -9.348 h -10.536 l -3.511,-9.371 13.57,-30.34 0.871,0.282 1.797,0.507 0.871,0.223 0.898,0.195 0.899,0.2 0.926,0.168 0.902,0.14 0.898,0.141 0.926,0.109 0.899,0.113 0.925,0.086 0.93,0.055 0.926,0.055 0.898,0.027 h 0.93 l 2.414,-0.055 2.387,-0.195 2.332,-0.281 2.305,-0.422 2.277,-0.531 2.219,-0.617 2.16,-0.731 2.137,-0.844 2.078,-0.925 1.996,-1.04 1.965,-1.121 1.91,-1.234 1.828,-1.293 1.769,-1.402 1.684,-1.457 1.629,-1.547 1.547,-1.625 1.488,-1.684 1.375,-1.769 1.32,-1.852 1.211,-1.883 1.121,-1.961 1.039,-2.023 0.93,-2.074 0.844,-2.106 0.73,-2.191 0.645,-2.215 0.504,-2.246 0.422,-2.301 0.308,-2.359 0.172,-2.356 0.055,-2.414 -0.055,-2.414 -0.172,-2.355 -0.308,-2.36 -0.422,-2.3 -0.504,-2.247 -0.645,-2.214 -0.73,-2.192 -0.844,-2.101 -0.93,-2.078 -1.039,-2.02 -1.121,-1.965 -1.211,-1.883 -1.32,-1.851 -1.375,-1.766 -1.488,-1.687 -1.547,-1.625 -1.629,-1.543 -1.684,-1.489 -1.769,-1.375 -1.828,-1.293 -1.91,-1.234 -1.965,-1.121 -1.996,-1.039 -2.078,-0.926 -2.137,-0.844 -2.16,-0.726 -2.219,-0.621 -2.277,-0.532 -2.305,-0.421 -2.332,-0.282 -2.387,-0.195 -2.414,-0.055 -2.082,0.055 -2.051,0.141 -2.019,0.195 -2.024,0.34 -1.968,0.39 -1.965,0.477 -1.91,0.535 -1.883,0.645 -1.856,0.73 -1.824,0.785 -1.769,0.871 -1.743,0.926 -1.715,1.008 -1.628,1.098 -1.602,1.121 -1.543,1.234 -1.519,1.262 -1.43,1.347 -1.379,1.375 -1.348,1.461 -1.265,1.516 -1.207,1.57 -1.125,1.629 -1.067,1.656 -1.012,1.739 -0.925,1.769 -0.871,1.797 -0.786,1.879 -0.703,1.91 -0.617,1.934 -0.562,1.992 -0.45,2.023 z m 80.148,9.344 h 66.75 l -49.668,55.149 -0.031,-0.086 z"/><path id="path4890" style="fill:#fefefe;fill-opacity:1;fill-rule:evenodd;stroke:none" d="m 82.738,103.164 h 0.985 l 0.504,-0.027 0.507,-0.055 -6.488,-20.965 -0.086,-0.336 -0.055,-0.34 -0.058,-0.363 v -0.336 l 0.027,-0.476 0.059,-0.481 0.113,-0.445 0.168,-0.422 0.195,-0.422 0.227,-0.363 0.281,-0.367 0.309,-0.336 0.336,-0.309 0.336,-0.254 0.394,-0.25 0.422,-0.199 0.422,-0.141 0.449,-0.109 0.477,-0.086 0.476,-0.027 0.367,0.027 0.364,0.027 0.394,0.086 0.336,0.114 0.34,0.109 0.336,0.168 0.336,0.172 0.281,0.222 0.309,0.227 0.254,0.25 0.254,0.254 0.222,0.309 0.196,0.308 0.199,0.336 0.14,0.336 0.141,0.367 6.516,20.934 0.648,-0.363 0.645,-0.422 0.617,-0.422 0.617,-0.418 0.594,-0.477 0.558,-0.48 0.563,-0.477 0.535,-0.531 0.504,-0.508 0.508,-0.558 0.953,-1.125 0.449,-0.59 0.422,-0.618 0.789,-1.234 0.336,-0.644 0.363,-0.645 0.309,-0.676 0.562,-1.343 0.254,-0.704 0.227,-0.703 0.222,-0.699 0.168,-0.73 0.168,-0.704 0.141,-0.757 0.113,-0.727 0.086,-0.73 0.11,-1.516 v -0.758 l -0.028,-1.152 -0.082,-1.149 -0.14,-1.125 -0.2,-1.093 -0.25,-1.094 -0.308,-1.067 -0.34,-1.039 -0.422,-1.011 -0.449,-1.008 -0.477,-0.957 -0.562,-0.953 -0.563,-0.899 -0.644,-0.898 -0.645,-0.84 -0.73,-0.812 -0.731,-0.79 -0.789,-0.726 -0.812,-0.703 -0.844,-0.676 -0.871,-0.617 -0.926,-0.586 -0.93,-0.535 -0.98,-0.504 -0.984,-0.449 -1.012,-0.395 -1.067,-0.363 -1.07,-0.309 -1.066,-0.254 -1.125,-0.195 -1.121,-0.141 -1.125,-0.086 -1.153,-0.027 -1.179,0.027 -1.121,0.086 -1.126,0.141 -1.124,0.195 -1.067,0.254 -1.066,0.309 -1.039,0.363 -1.043,0.395 -0.981,0.449 -0.984,0.504 -0.926,0.535 -0.93,0.586 -0.871,0.617 -0.84,0.676 -0.816,0.703 -0.785,0.726 -0.731,0.79 -0.703,0.812 -0.676,0.84 -0.644,0.898 -0.563,0.899 -0.562,0.953 -0.477,0.957 -0.449,1.008 -0.422,1.011 -0.336,1.039 -0.308,1.067 -0.254,1.094 -0.195,1.093 -0.141,1.125 -0.086,1.149 -0.027,1.152 0.027,1.149 0.086,1.152 0.141,1.121 0.195,1.094 0.254,1.097 0.308,1.067 0.336,1.035 0.422,1.012 0.449,1.011 0.477,0.954 0.562,0.953 0.563,0.898 0.644,0.871 0.676,0.871 0.703,0.813 0.731,0.758 0.785,0.757 0.816,0.704 0.84,0.671 0.871,0.618 0.93,0.59 0.926,0.531 0.984,0.508 0.981,0.449 1.043,0.39 1.039,0.368 1.066,0.281 1.067,0.25 1.124,0.199 1.126,0.137 1.121,0.086 z"/><path id="path4892" style="fill:#fefefe;fill-opacity:1;fill-rule:evenodd;stroke:none" d="m 296.129,95.699 23.402,62.332 9.692,-21.668 -1.348,-0.785 -1.32,-0.84 -1.293,-0.871 -1.266,-0.926 -1.234,-0.953 -1.18,-1.011 -1.152,-1.039 -1.094,-1.04 -1.07,-1.121 -1.039,-1.121 -1.012,-1.152 -0.953,-1.207 -0.899,-1.235 -0.871,-1.234 -0.844,-1.293 -0.785,-1.289 -0.761,-1.348 -0.7,-1.347 -0.648,-1.375 -0.617,-1.403 -0.563,-1.402 -0.531,-1.461 -0.481,-1.43 -0.421,-1.488 -0.391,-1.488 -0.309,-1.516 -0.281,-1.515 -0.254,-1.543 -0.168,-1.543 -0.14,-1.543 -0.086,-1.574 -0.028,-1.571 z"/><path id="path4894" style="fill:#fefefe;fill-opacity:1;fill-rule:evenodd;stroke:none" d="m 268.148,116.355 h 25.649 l -7.473,-20.152 z"/><path id="path4896" style="fill:#fefefe;fill-opacity:1;fill-rule:evenodd;stroke:none" d="m 314.867,95.699 v 1.235 l 0.059,1.207 0.109,1.234 0.141,1.207 0.168,1.207 0.226,1.18 0.254,1.179 0.281,1.176 0.336,1.153 0.364,1.121 0.394,1.152 0.899,2.188 0.507,1.093 0.563,1.067 0.559,1.039 0.589,1.039 0.649,1.012 0.672,0.98 0.703,0.957 0.73,0.953 0.758,0.926 0.817,0.898 0.812,0.868 0.844,0.843 0.898,0.844 0.899,0.785 0.957,0.785 0.957,0.731 0.98,0.699 1.039,0.676 1.039,0.672 14.356,-32.106 z"/><path id="path4898" style="fill:#fefefe;fill-opacity:1;fill-rule:evenodd;stroke:none" d="m 316.047,86.355 38.57,-0.058 0.481,0.027 0.476,0.086 0.449,0.113 0.422,0.168 0.422,0.196 0.391,0.226 0.367,0.278 0.336,0.312 0.309,0.336 0.253,0.336 0.254,0.395 0.196,0.418 0.14,0.421 0.114,0.477 0.082,0.449 0.031,0.477 -0.031,0.508 -0.082,0.476 -0.114,0.477 -0.195,0.476 -17.277,38.59 1.293,0.363 1.32,0.336 1.32,0.254 1.321,0.223 1.347,0.172 1.348,0.109 1.348,0.086 1.347,0.027 1.942,-0.054 1.91,-0.141 1.851,-0.254 1.856,-0.308 1.797,-0.422 1.8,-0.504 1.739,-0.59 1.687,-0.672 1.656,-0.758 1.629,-0.816 1.547,-0.899 1.516,-0.98 1.488,-1.039 1.406,-1.121 1.348,-1.18 1.32,-1.234 1.239,-1.293 1.179,-1.344 1.094,-1.434 1.039,-1.457 0.984,-1.515 0.899,-1.574 0.844,-1.598 0.73,-1.656 0.672,-1.711 0.594,-1.743 0.504,-1.765 0.422,-1.797 0.335,-1.852 0.227,-1.882 0.141,-1.879 0.054,-1.938 -0.054,-1.937 -0.141,-1.879 -0.227,-1.879 -0.335,-1.856 -0.422,-1.793 -0.504,-1.769 -0.594,-1.738 -0.672,-1.715 -0.73,-1.656 -0.844,-1.598 -0.899,-1.57 -0.984,-1.516 -1.039,-1.461 -1.094,-1.43 -1.179,-1.347 -1.239,-1.293 -1.32,-1.262 -1.348,-1.152 -1.406,-1.121 -1.488,-1.039 -1.516,-0.981 -1.547,-0.898 -1.629,-0.813 -1.656,-0.758 -1.687,-0.676 -1.739,-0.589 -1.8,-0.504 -1.797,-0.422 -1.856,-0.309 -1.851,-0.254 -1.91,-0.136 -1.942,-0.059 -1.57,0.027 -1.602,0.114 -1.547,0.168 -1.543,0.226 -1.546,0.281 -1.489,0.364 -1.488,0.422 -1.461,0.476 -1.434,0.531 -1.433,0.59 -1.375,0.617 -1.348,0.704 -1.32,0.757 -1.293,0.813 -1.234,0.844 -1.239,0.898 -1.179,0.953 -1.125,1.012 -1.121,1.035 -1.04,1.098 -1.011,1.121 -0.985,1.18 -0.925,1.234 -0.872,1.234 -0.816,1.289 -0.785,1.348 -0.703,1.375 -0.676,1.406 -0.617,1.43 -0.531,1.488 -0.508,1.488 z"/><path id="path4900" style="fill:#000000;fill-opacity:1;fill-rule:evenodd;stroke:none" d="M 215.141,164.906 194.855,99.434 h -61.746 l -42.589,46.613 1.406,1.879 1.629,1.769 1.855,1.629 2.051,1.516 2.246,1.43 2.473,1.32 2.64,1.207 2.809,1.121 3.008,1.012 3.199,0.925 3.344,0.84 3.511,0.789 3.653,0.672 3.793,0.617 3.961,0.536 4.101,0.445 4.215,0.394 4.324,0.364 4.469,0.281 4.578,0.227 4.664,0.168 4.774,0.14 4.863,0.082 4.973,0.059 h 10.14 l 5.196,-0.059 5.253,-0.055 10.649,-0.195 z"/></g></g></svg>